<svg width="24" height="18" viewBox="0 0 24 18" fill="none" xmlns="http://www.w3.org/2000/svg">
<path d="M20.1504 6.83398C20.002 4.68164 18.2207 2.9375 16.0312 2.9375C15.7344 2.9375 15.4375 2.97461 15.1777 3.04883C13.9902 1.56445 12.1719 0.5625 10.0938 0.5625C6.93945 0.5625 4.30469 2.78906 3.67383 5.75781C1.44727 6.68555 0 8.83789 0 11.25C0 14.5527 2.63477 17.1875 5.9375 17.1875H18.4062C21.3379 17.1875 23.75 14.8125 23.75 11.8438C23.75 9.58008 22.2656 7.57617 20.1504 6.83398ZM18.4062 15.4062H5.9375C3.63672 15.4062 1.78125 13.5508 1.78125 11.25C1.78125 9.17188 3.30273 7.42773 5.34375 7.16797V7.09375C5.34375 4.49609 7.45898 2.34375 10.0938 2.34375C12.0605 2.34375 13.7676 3.56836 14.4727 5.3125C14.8809 4.94141 15.4375 4.71875 16.0312 4.71875C17.3301 4.71875 18.4062 5.79492 18.4062 7.09375C18.4062 7.53906 18.2578 7.94727 18.0723 8.31836C18.1836 8.31836 18.2949 8.28125 18.4062 8.28125C20.373 8.28125 21.9688 9.87695 21.9688 11.8438C21.9688 13.8105 20.373 15.4062 18.4062 15.4062ZM10.9844 4.97852C10.7988 4.79297 10.5391 4.79297 10.3535 4.97852L6.49414 8.83789C6.30859 9.02344 6.30859 9.2832 6.49414 9.46875L7.125 10.0996C7.31055 10.2852 7.57031 10.2852 7.75586 10.0996L9.79688 8.02148V13.1797C9.79688 13.4395 9.98242 13.625 10.2422 13.625H11.1328C11.3555 13.625 11.5781 13.4395 11.5781 13.1797V8.02148L13.582 10.0996C13.7676 10.2852 14.0273 10.2852 14.2129 10.0996L14.8438 9.46875C15.0293 9.2832 15.0293 9.02344 14.8438 8.83789L10.9844 4.97852Z" fill="#8392A5"/>
</svg>
